PathFileType	4	(X/Y/Z)	HSS_walk5.trc
DataRate	CameraRate	NumFrames	NumMarkers	Units	OrigDataRate	OrigDataStartFrame	OrigNumFrames
120.0	120.0	5	44	mm	120.0	406	1080
Frame#	Time		R.Shoulder		Offset		L.Shoulder		R.Elbow		R.Wrist.Radial		R.Wrist		R.Hand		L.Elbow		L.Wrist.Radial		L.Wrist		L.Hand		R.Hip		V.Sacral		L.PSIS		L.Hip		R.Thigh.Upper		R.Thigh.Front		R.Thigh.Rear		X.Shell.Lower.Thigh.Right		R.Knee.Lateral		R.Shank.Upper		R.Shank.Front		R.Shank.Rear		X.Shell.Lower.Shank.Right		R.Ankle.Lateral		R.Heel		R.Toe		L.Thigh.Upper		L.Thigh.Front		L.Thigh.Rear		X.Shell.Lower.Thigh.Left		L.Knee.Lateral		L.Shank.Upper		L.Shank.Front		L.Shank.Rear		X.Shell.Lower.Shank.Left		L.Ankle.Lateral		L.Heel		L.Toe		R.Troc		L.Troc		R.PSIS		L.ASIS		R.ASIS
			X1	Y1	Z1	X2	Y2	Z2	X3	Y3	Z3	X4	Y4	Z4	X5	Y5	Z5	X6	Y6	Z6	X7	Y7	Z7	X8	Y8	Z8	X9	Y9	Z9	X10	Y10	Z10	X11	Y11	Z11	X12	Y12	Z12	X13	Y13	Z13	X14	Y14	Z14	X15	Y15	Z15	X16	Y16	Z16	X17	Y17	Z17	X18	Y18	Z18	X19	Y19	Z19	X20	Y20	Z20	X21	Y21	Z21	X22	Y22	Z22	X23	Y23	Z23	X24	Y24	Z24	X25	Y25	Z25	X26	Y26	Z26	X27	Y27	Z27	X28	Y28	Z28	X29	Y29	Z29	X30	Y30	Z30	X31	Y31	Z31	X32	Y32	Z32	X33	Y33	Z33	X34	Y34	Z34	X35	Y35	Z35	X36	Y36	Z36	X37	Y37	Z37	X38	Y38	Z38	X39	Y39	Z39	X40	Y40	Z40	X41	Y41	Z41	X42	Y42	Z42	X43	Y43	Z43	X44	Y44	Z44

406	3.37500	-1668.64636	1467.63965	-51.05343	-1779.28943	1382.61267	-338.30557	-1656.27295	1481.14600	-424.60370	-1707.59497	1103.32642	-2.17467	-1561.41394	889.46692	-3.47264	-1601.82678	880.96448	58.35652	-1551.50598	809.42267	53.84166	-1706.28345	1118.48560	-474.14453	-1604.14709	899.16254	-504.62448	-1573.76196	899.14624	-438.11133	-1563.67090	823.63678	-485.07361	-1659.58765	1026.59998	-86.33214	-1775.10681	1015.21613	-239.84511	-1770.53394	1023.36273	-280.17877	-1645.36694	1030.19653	-381.50528	-1570.91968	686.99445	-54.95040	-1530.98267	656.66699	-69.51485	-1586.16772	645.18402	-44.64104	-1552.65759	617.93829	-61.52098	-1595.47864	505.47787	-71.73770	-1655.67432	375.95456	-16.79722	-1645.15967	324.00555	-34.68030	-1698.20679	352.96405	-29.12943	-1691.31543	306.67773	-34.26292	-1783.68848	99.79676	-68.22459	-1834.24756	69.98180	-118.69456	-1645.81201	33.26030	-58.56752	-1603.68494	679.68866	-390.50369	-1587.63184	631.11511	-364.17764	-1633.89551	644.50427	-404.72440	-1611.02332	609.37134	-388.74527	-1685.00684	495.69101	-366.84097	-1741.12610	296.00354	-399.42029	-1720.42322	269.75146	-375.94040	-1778.86023	263.55490	-388.88074	-1761.00830	229.57256	-384.87946	-1782.30566	68.40434	-331.53708	-1842.39197	31.35469	-283.60950	-1647.29590	37.67900	-318.98172	-1640.73804	864.40283	-55.78013	-1644.20581	884.32294	-417.00000	-1776.82727	1020.59735	-195.34676	-1585.00708	991.43988	-339.85687	-1602.88098	987.65057	-117.99270
407	3.38333	-1666.74963	1467.07178	-52.05437	-1776.45251	1382.58838	-339.73865	-1652.92590	1480.58606	-425.61850	-1707.12488	1103.02112	-3.21434	-1560.69238	888.98169	-3.93286	-1601.56262	880.51569	57.67348	-1550.91345	809.00140	53.34128	-1703.71790	1118.05261	-475.12003	-1602.54663	898.50458	-505.69815	-1571.81287	898.31891	-439.40485	-1562.32996	822.69940	-485.94391	-1659.19714	1026.55261	-87.14461	-1774.11877	1014.32977	-240.94131	-1769.06873	1022.71979	-281.26779	-1643.36487	1029.61487	-382.12061	-1564.24536	688.85077	-56.77097	-1523.58459	659.53992	-71.61802	-1578.56018	646.66571	-46.59219	-1544.24219	620.26532	-63.21493	-1585.12671	506.90759	-73.08964	-1646.68994	378.21536	-18.60360	-1636.95422	326.03400	-36.56414	-1689.66614	355.93170	-30.78648	-1683.47656	309.44958	-36.18918	-1780.24500	105.28953	-69.99840	-1831.31177	77.05320	-121.06544	-1645.21484	33.89611	-59.70886	-1601.98499	679.38788	-390.90570	-1585.94580	630.67560	-364.48453	-1632.39343	644.06616	-404.76236	-1609.38794	608.90961	-388.90933	-1683.42249	495.26306	-367.09732	-1740.34241	295.67935	-399.56473	-1719.86609	269.56509	-376.08475	-1778.25000	263.48163	-388.90884	-1760.56482	229.48219	-384.94223	-1782.40710	68.48402	-331.51535	-1842.40894	31.34965	-283.61569	-1647.33130	37.66167	-318.98163	-1638.43787	865.18542	-57.07523	-1642.89697	884.42480	-419.23578	-1775.87427	1019.99298	-196.71461	-1583.46265	991.04108	-340.37927	-1602.03833	987.76074	-118.81714
408	3.39167	-1665.06299	1466.67065	-52.78272	-1773.56848	1382.65222	-341.17453	-1649.34619	1480.15015	-426.70856	-1706.59912	1102.69080	-4.52289	-1560.16394	888.74445	-4.22995	-1601.19629	880.01569	56.98842	-1550.57288	808.75916	52.93780	-1700.97168	1117.76880	-476.24002	-1600.65271	897.85370	-506.92542	-1569.45435	897.55261	-440.50357	-1560.67358	821.78693	-486.96991	-1658.40845	1026.54810	-88.10081	-1773.02856	1013.55225	-242.30595	-1767.59802	1022.23450	-282.41818	-1641.88110	1029.27954	-382.75687	-1557.53235	690.98590	-58.76933	-1516.02954	662.59058	-73.41104	-1570.62817	648.38184	-48.17790	-1535.85376	622.81146	-65.07018	-1574.51611	508.40741	-74.54572	-1637.54102	380.59375	-20.33535	-1628.50525	328.43304	-38.59707	-1680.86218	359.00119	-32.78516	-1675.50940	312.43265	-37.96374	-1776.41370	110.81973	-71.95441	-1827.95032	84.34189	-123.30622	-1644.49719	34.85093	-61.04733	-1600.41125	678.96936	-391.10730	-1584.39087	630.25372	-364.49976	-1630.75793	643.52612	-405.06653	-1607.70691	608.49731	-389.01132	-1681.91687	494.86151	-367.28619	-1739.72107	295.49380	-399.70053	-1719.10071	269.44382	-376.41736	-1777.56812	263.42072	-388.88522	-1760.00049	229.39476	-384.98703	-1782.37390	68.42052	-331.52435	-1842.45691	31.33131	-283.62283	-1647.34924	37.65801	-318.90451	-1636.06262	865.86060	-58.25541	-1641.29138	884.14398	-420.44342	-1774.79114	1019.45905	-198.05299	-1581.85474	990.71216	-341.09412	-1601.50354	987.91455	-119.75323
409	3.40000	-1663.06934	1466.46655	-53.68326	-1770.63623	1382.80518	-342.61667	-1645.67969	1479.82300	-427.46130	-1706.05530	1102.55176	-5.77188	-1559.61267	888.64758	-4.94115	-1600.89575	879.76471	56.11944	-1550.21313	808.61523	52.55225	-1697.99988	1117.62109	-477.12558	-1598.49731	897.43201	-507.89487	-1566.97717	897.08948	-441.57101	-1558.83020	821.13306	-488.24524	-1657.85303	1026.62854	-88.68877	-1771.76953	1012.88257	-243.54189	-1766.00574	1021.68134	-283.58368	-1640.42834	1029.07446	-383.83661	-1550.41907	693.40161	-60.40076	-1508.43250	665.88086	-75.45621	-1562.47913	650.46002	-50.19962	-1527.09839	625.70129	-67.25591	-1563.55884	510.21567	-75.71880	-1627.97339	383.05923	-22.29276	-1620.13184	330.91946	-40.66410	-1671.69312	362.13895	-34.73714	-1666.91772	315.46210	-40.12900	-1771.89575	116.84801	-74.15850	-1824.27136	91.84992	-125.61639	-1643.50073	36.21194	-62.41090	-1598.62329	678.46875	-391.43246	-1582.67212	629.80908	-364.64392	-1629.05737	643.16632	-405.26260	-1606.02173	607.89203	-388.99924	-1680.49438	494.51151	-367.58374	-1738.98865	295.30933	-399.87964	-1718.53503	269.18579	-376.40805	-1777.12329	263.37396	-388.82037	-1759.55005	229.27763	-384.94049	-1782.30408	68.36459	-331.52081	-1842.49207	31.35141	-283.61398	-1647.36536	37.65831	-318.92209	-1633.37292	866.61371	-59.47269	-1639.61462	883.67218	-421.16962	-1773.51562	1018.88855	-199.34105	-1580.21362	990.68085	-342.00522	-1599.58008	988.24261	-120.61731
410	3.40833	-1661.29199	1466.27490	-54.55124	-1767.54517	1382.95251	-344.11890	-1641.94336	1479.46753	-428.18491	-1705.63831	1102.55432	-7.07390	-1559.03076	888.62958	-5.57455	-1600.80078	879.65320	55.27135	-1549.95642	808.58252	52.26098	-1694.93384	1117.44092	-478.01907	-1596.25012	897.00464	-508.79288	-1564.05652	896.84119	-442.86826	-1556.65137	820.49536	-489.43082	-1656.91785	1026.84814	-89.25703	-1770.23376	1012.11475	-244.69943	-1764.28381	1021.14276	-284.55701	-1638.48779	1028.73755	-384.49774	-1543.34143	695.73108	-61.96845	-1500.69055	669.36798	-77.30535	-1554.50281	652.57318	-52.05404	-1518.60413	628.61786	-69.06400	-1552.80176	511.99081	-77.05004	-1618.29065	385.49704	-24.03953	-1611.30286	333.36658	-42.69871	-1662.36365	365.41696	-36.27080	-1658.39600	318.53226	-42.15518	-1766.92725	122.54140	-76.51220	-1819.86804	99.01076	-128.18329	-1642.05310	37.39447	-64.26247	-1597.02734	677.96570	-391.71362	-1581.05066	629.44360	-365.06247	-1627.43591	642.65753	-405.31824	-1604.44116	607.54877	-389.28751	-1678.91858	494.17828	-367.73111	-1738.23401	295.23544	-400.13904	-1717.89441	268.84769	-376.45996	-1776.50330	263.31110	-388.80099	-1759.14197	229.14461	-384.95599	-1782.27783	68.30286	-331.46014	-1842.54736	31.34918	-283.57861	-1647.38794	37.61444	-318.89481	-1630.64014	867.45166	-60.38942	-1637.94092	883.02057	-421.52780	-1772.17883	1018.50287	-200.55074	-1578.52698	990.40991	-342.86157	-1598.53333	988.36487	-121.18105
